<?xml version="1.0" encoding="utf-8"?>
<!-- Generator: Adobe Illustrator 27.0.0, SVG Export Plug-In . SVG Version: 6.00 Build 0)  -->
<svg version="1.1" id="Layer_1" xmlns="http://www.w3.org/2000/svg" xmlns:xlink="http://www.w3.org/1999/xlink" x="0px" y="0px"
	 viewBox="0 0 1200 800" style="enable-background:new 0 0 1200 800;" xml:space="preserve">
<style type="text/css">
	.st0{fill:#E30A17;}
	.st1{fill:#FFFFFF;}
</style>
<path class="st0" d="M95,0h1010c52.4,0,95,42.5,95,95v610c0,52.4-42.5,95-95,95H95c-52.4,0-95-42.5-95-95V95C0,42.5,42.5,0,95,0z"/>
<path class="st1" d="M556.7,400l180.9-58.8L625.8,495.1V304.9l111.8,153.9L556.7,400z M569,506.9C509.9,600.2,386.4,628,293,569
	c-93.3-59.1-121.1-182.6-62.1-276s182.6-121.1,276-62.1c25,15.8,46.2,37,62.1,62.1c-59.1-65.7-160.2-71.1-226-12.1
	s-71.1,160.2-12.1,226s160.2,71.1,226,12.1C561.2,515.2,565.2,511.2,569,506.9z"/>
</svg>
